<svg width="33" height="40" viewBox="0 0 33 40" fill="none" xmlns="http://www.w3.org/2000/svg">
<path d="M7.81364 17.9259C8.3312 17.9259 8.82756 17.7158 9.19353 17.3418C9.5595 16.9679 9.7651 16.4607 9.7651 15.9318C9.7651 15.403 9.5595 14.8958 9.19353 14.5219C8.82756 14.1479 8.3312 13.9378 7.81364 13.9378C7.29608 13.9378 6.79972 14.1479 6.43375 14.5219C6.06778 14.8958 5.86218 15.403 5.86218 15.9318C5.86218 16.4607 6.06778 16.9679 6.43375 17.3418C6.79972 17.7158 7.29608 17.9259 7.81364 17.9259ZM17.5709 21.9099C17.5709 22.4388 17.3653 22.9459 16.9994 23.3199C16.6334 23.6938 16.137 23.9039 15.6195 23.9039C15.1019 23.9039 14.6055 23.6938 14.2396 23.3199C13.8736 22.9459 13.668 22.4388 13.668 21.9099C13.668 21.3811 13.8736 20.8739 14.2396 20.4999C14.6055 20.126 15.1019 19.9159 15.6195 19.9159C16.137 19.9159 16.6334 20.126 16.9994 20.4999C17.3653 20.8739 17.5709 21.3811 17.5709 21.9099ZM7.81364 29.882C8.3312 29.882 8.82756 29.6719 9.19353 29.298C9.5595 28.924 9.7651 28.4168 9.7651 27.888C9.7651 27.3591 9.5595 26.8519 9.19353 26.478C8.82756 26.104 8.3312 25.894 7.81364 25.894C7.29608 25.894 6.79972 26.104 6.43375 26.478C6.06778 26.8519 5.86218 27.3591 5.86218 27.888C5.86218 28.4168 6.06778 28.924 6.43375 29.298C6.79972 29.6719 7.29608 29.882 7.81364 29.882ZM0.0078069 5.30373C0.0078069 2.32068 2.4081 -0.287492 5.51092 0.0255685C15.6141 1.0483 24.9744 5.90595 31.7424 13.6387C33.8305 16.0176 33.1806 19.549 30.8077 21.3057C27.37 23.8518 23.9335 26.3995 20.4981 28.9488C20.4942 29.8202 20.4942 30.3865 20.4962 31.1243V32.3785C20.4964 32.8886 20.3873 33.3925 20.1763 33.8548C19.9654 34.3171 19.6579 34.7266 19.2754 35.0543C18.8929 35.382 18.4447 35.6201 17.9624 35.7517C17.4801 35.8834 16.9755 35.9054 16.484 35.8162C16.0859 37.4632 14.6652 38.861 12.6903 38.861C11.3243 38.861 10.2276 38.193 9.55044 37.2359L6.96475 39.1422C4.06098 41.2858 -0.00195076 39.1661 7.0271e-07 35.5031L0.0078069 5.30373ZM5.2221 3.00264C4.03366 2.88299 2.93109 3.88599 2.93109 5.30772V6.34461C7.83001 6.55386 12.6278 7.83613 16.9996 10.1046C21.3714 12.3731 25.2152 15.5749 28.2708 19.4932L29.0884 18.887C30.2164 18.0495 30.3608 16.548 29.5607 15.6367C23.2821 8.46113 14.596 3.95284 5.2221 3.00264ZM2.92524 35.5051C2.92524 36.7274 4.27955 37.4353 5.24747 36.7215L9.40017 33.6606C9.61897 33.4998 9.87698 33.4038 10.1458 33.3833C10.4146 33.3627 10.6837 33.4185 10.9234 33.5443C11.1632 33.6701 11.3643 33.8611 11.5046 34.0962C11.6449 34.3314 11.7189 34.6016 11.7185 34.877C11.7185 35.4154 12.1264 35.874 12.6884 35.874C12.8171 35.8753 12.9447 35.8505 13.0639 35.8009C13.1831 35.7513 13.2914 35.678 13.3826 35.5852C13.4738 35.4924 13.546 35.382 13.595 35.2604C13.644 35.1388 13.6688 35.0085 13.668 34.877V32.3745C13.668 31.9779 13.8222 31.5975 14.0967 31.317C14.3712 31.0366 14.7434 30.879 15.1316 30.879C15.5198 30.879 15.892 31.0366 16.1665 31.317C16.441 31.5975 16.5952 31.9779 16.5952 32.3745C16.5952 32.6557 16.8118 32.875 17.0792 32.875C17.2085 32.875 17.3326 32.8225 17.4241 32.729C17.5156 32.6355 17.567 32.5087 17.567 32.3765V31.1362C17.5651 30.199 17.5631 29.5251 17.5768 28.1671C17.5786 27.9336 17.6339 27.7038 17.7383 27.496C17.8426 27.2882 17.9932 27.1083 18.1778 26.9707C19.938 25.6626 23.0487 23.3576 25.8978 21.2479C23.1154 17.711 19.6283 14.8196 15.6682 12.7658C11.7081 10.7119 7.36555 9.54265 2.92914 9.33563V35.5051H2.92524Z" fill="#E26D18"/>
</svg>
